<svg width="18" height="18" viewBox="0 0 18 18" fill="none" xmlns="http://www.w3.org/2000/svg">
<circle cx="9" cy="9" r="9" fill="#B5234D"/>
<path d="M9.40102 10.54H8.59702L8.36902 7V4.6H9.62902V7L9.40102 10.54ZM8.99302 13.132C8.77702 13.132 8.59302 13.056 8.44102 12.904C8.28902 12.752 8.21302 12.568 8.21302 12.352C8.21302 12.136 8.28902 11.952 8.44102 11.8C8.59302 11.648 8.77702 11.572 8.99302 11.572C9.21702 11.572 9.40102 11.648 9.54502 11.8C9.69702 11.952 9.77302 12.136 9.77302 12.352C9.77302 12.568 9.69702 12.752 9.54502 12.904C9.40102 13.056 9.21702 13.132 8.99302 13.132Z" fill="white"/>
</svg>
